HIERARCHY
ROOT Hips
{
	OFFSET 0.000000 0.000000 0.000000
	CHANNELS 6 Xposition Yposition Zposition Zrotation Yrotation Xrotation 
	JOINT Spine
	{
		OFFSET 0.000000 0.070810 0.000000
		CHANNELS 3 Zrotation Yrotation Xrotation
		JOINT Spine1
		{
			OFFSET 0.000000 0.163955 0.000000
			CHANNELS 3 Zrotation Yrotation Xrotation
			JOINT Neck
			{
				OFFSET 0.000000 0.181226 0.000000
				CHANNELS 3 Zrotation Yrotation Xrotation
				JOINT Head
				{
					OFFSET 0.000000 0.133848 0.017271
					CHANNELS 3 Zrotation Yrotation Xrotation
					End Site
					{
						OFFSET 0.000000 0.172708 0.000000
					}
				}
			}
			JOINT LeftShoulder
			{
				OFFSET 0.034797 0.143131 -0.002358
				CHANNELS 3 Zrotation Yrotation Xrotation
				JOINT LeftArm
				{
					OFFSET 0.115628 0.000000 0.000000
					CHANNELS 3 Zrotation Yrotation Xrotation
					JOINT LeftForeArm
					{
						OFFSET 0.250837 0.000000 0.000000
						CHANNELS 3 Zrotation Yrotation Xrotation
						JOINT LeftHand
						{
							OFFSET 0.226791 0.000000 0.000000
							CHANNELS 3 Zrotation Yrotation Xrotation
							End Site
							{
								OFFSET 0.129531 0.000000 0.000000
							}
						}
					}
				}
			}
			JOINT RightShoulder
			{
				OFFSET -0.034258 0.143131 -0.002358
				CHANNELS 3 Zrotation Yrotation Xrotation
				JOINT RightArm
				{
					OFFSET -0.115628 0.000000 0.000000
					CHANNELS 3 Zrotation Yrotation Xrotation
					JOINT RightForeArm
					{
						OFFSET -0.250837 0.000000 0.000000
						CHANNELS 3 Zrotation Yrotation Xrotation
						JOINT RightHand
						{
							OFFSET -0.226791 0.000000 0.000000
							CHANNELS 3 Zrotation Yrotation Xrotation
							End Site
							{
								OFFSET -0.129531 0.000000 0.000000
							}
						}
					}
				}
			}
		}
	}
	JOINT LeftUpLeg
	{
		OFFSET 0.086354 0.000000 0.000000
		CHANNELS 3 Zrotation Yrotation Xrotation
		JOINT LeftLeg
		{
			OFFSET 0.000000 -0.389823 0.000000
			CHANNELS 3 Zrotation Yrotation Xrotation
			JOINT LeftFoot
			{
				OFFSET 0.000000 -0.357547 0.000000
				CHANNELS 3 Zrotation Yrotation Xrotation
				JOINT LeftToeBase
				{
					OFFSET 0.000000 -0.056130 0.129531
					CHANNELS 3 Zrotation Yrotation Xrotation
					End Site
					{
						OFFSET 0.000000 0.000000 0.034542
					}
				}
			}
		}
	}
	JOINT RightUpLeg
	{
		OFFSET -0.086354 0.000000 0.000000
		CHANNELS 3 Zrotation Yrotation Xrotation
		JOINT RightLeg
		{
			OFFSET 0.000000 -0.389823 0.000000
			CHANNELS 3 Zrotation Yrotation Xrotation
			JOINT RightFoot
			{
				OFFSET 0.000000 -0.357547 0.000000
				CHANNELS 3 Zrotation Yrotation Xrotation
				JOINT RightToeBase
				{
					OFFSET 0.000000 -0.056130 0.129531
					CHANNELS 3 Zrotation Yrotation Xrotation
					End Site
					{
						OFFSET 0.000000 0.000000 0.034542
					}
				}
			}
		}
	}
}
MOTION
Frames: 15
Frame Time: 0.010000
0.011319 0.803834 -0.384047 -1.247175 3.351978 -4.864484 1.652668 0.577304 0.017629 -2.253210 0.159711 -1.670152 -1.014178 -1.325062 17.888050 8.941507 -1.593301 -14.260340 6.209368 -0.644033 8.948437 -76.362776 -14.675359 22.330546 -20.952920 -12.990077 2.509943 15.443863 6.338291 0.958122 -0.089508 -10.420832 14.534014 73.268352 20.043484 30.401498 10.989535 18.968951 4.674887 7.165352 4.867282 3.138349 3.987027 3.316523 13.601179 -6.930266 8.283113 -5.183583 -0.064535 -7.548444 -8.921117 0.000000 0.000000 0.000001 3.517746 10.100347 7.072380 9.207901 17.181231 14.679820 -5.096315 -25.887061 -15.425174 0.000000 0.000000 0.000000 
0.011129 0.803845 -0.384132 -1.238402 3.381696 -4.878692 1.628577 0.585025 0.025151 -2.263012 0.161821 -1.691096 -1.031731 -1.346100 17.878704 8.991236 -1.622269 -14.215642 6.226442 -0.663799 8.919235 -76.296519 -14.602328 22.272546 -20.933689 -12.915685 2.506883 15.519053 6.333964 0.975089 -0.094300 -10.407157 14.540621 73.219348 20.014240 30.415968 10.929756 18.936248 4.630378 7.337432 4.828822 3.112039 3.985750 3.317179 13.593501 -6.899193 8.193132 -5.157560 -0.092013 -7.477220 -8.921294 0.000000 0.000000 0.000002 3.522498 10.092849 7.084796 9.209062 17.161274 14.671014 -5.116219 -25.886314 -15.409537 0.000000 0.000000 -0.000002 
0.010941 0.803850 -0.384211 -1.227992 3.408975 -4.891173 1.609564 0.602926 0.025579 -2.283639 0.167343 -1.701804 -1.029310 -1.375447 17.886415 9.014590 -1.650837 -14.204965 6.235001 -0.699553 8.911347 -76.219059 -14.554927 22.205792 -20.918552 -12.873806 2.503707 15.527472 6.311439 0.979222 -0.091364 -10.406754 14.539428 73.172836 19.981599 30.450632 10.886084 18.926518 4.592311 7.370925 4.800062 3.081852 3.988417 3.305082 13.591481 -6.898409 8.185742 -5.150097 -0.096205 -7.473983 -8.916388 0.000000 0.000001 0.000002 3.527741 10.071523 7.091995 9.194452 17.119682 14.668216 -5.111606 -25.845059 -15.415647 0.000000 0.000000 0.000000 
0.010734 0.803863 -0.384302 -1.218136 3.427794 -4.900781 1.585497 0.616179 0.033221 -2.294053 0.171105 -1.725349 -1.039303 -1.389782 17.887828 9.048544 -1.669057 -14.186904 6.247840 -0.711748 8.905633 -76.160633 -14.516582 22.157656 -20.907971 -12.846050 2.480209 15.503583 6.416552 0.975410 -0.098166 -10.391666 14.543353 73.127016 19.961011 30.450563 10.910639 18.876911 4.596091 7.314502 4.752334 3.080914 3.995252 3.303691 13.585027 -6.897410 8.176650 -5.135691 -0.096968 -7.480889 -8.905859 0.000001 0.000001 0.000001 3.529219 10.039241 7.089901 9.200501 17.145192 14.686715 -5.120275 -25.852373 -15.408885 0.000000 0.000000 0.000000 
0.010518 0.803870 -0.384362 -1.209357 3.448496 -4.920507 1.545785 0.643277 0.061779 -2.284649 0.179396 -1.776397 -1.024232 -1.422121 17.918126 9.052964 -1.696210 -14.186135 6.250557 -0.750615 8.922656 -76.113973 -14.495774 22.103463 -20.874818 -12.787996 2.435077 15.712322 6.400710 0.954383 -0.096026 -10.396896 14.560623 73.046842 19.934106 30.438427 10.907756 18.845348 4.589618 7.343828 4.725513 3.077526 4.004313 3.310121 13.593876 -6.890386 8.156173 -5.128661 -0.100920 -7.486743 -8.895815 -0.000001 0.000000 -0.000001 3.538318 10.056469 7.111246 9.198025 17.088617 14.668684 -5.143536 -25.830534 -15.397402 0.000000 0.000000 -0.000002 
0.010290 0.803878 -0.384433 -1.205060 3.465293 -4.930116 1.522697 0.655775 0.081439 -2.288807 0.182509 -1.825323 -1.033295 -1.427857 17.940742 9.087171 -1.704780 -14.183136 6.258086 -0.761546 8.928880 -76.081249 -14.451743 22.086352 -20.787596 -12.755258 2.413065 15.603808 6.387247 0.940556 -0.097531 -10.378739 14.569044 72.988343 19.896200 30.413335 10.907990 18.819736 4.600525 7.400000 4.666986 3.089443 4.015332 3.315216 13.591450 -6.882534 8.157138 -5.119875 -0.074712 -7.507208 -8.915337 -0.000001 0.000000 -0.000001 3.551484 10.058834 7.113664 9.206932 17.105450 14.678624 -5.165887 -25.857318 -15.386919 0.000000 0.000000 -0.000003 
0.010058 0.803879 -0.384496 -1.195592 3.481374 -4.943374 1.501882 0.665560 0.097366 -2.302938 0.185050 -1.860752 -1.050269 -1.432431 17.966951 9.133461 -1.713207 -14.196682 6.258064 -0.769053 8.934462 -76.028164 -14.427552 22.076519 -20.735024 -12.720088 2.346271 15.596258 6.415204 0.889571 -0.098092 -10.346747 14.580292 72.923634 19.897605 30.361765 10.986024 18.719929 4.626662 7.348286 4.655332 3.109506 4.026265 3.327785 13.593070 -6.876088 8.134568 -5.109682 -0.115826 -7.516684 -8.894949 0.000000 0.000002 0.000003 3.556335 10.037023 7.122865 9.212535 17.118949 14.680786 -5.179961 -25.863474 -15.378306 0.000000 0.000000 0.000002 
0.009815 0.803892 -0.384558 -1.183398 3.498287 -4.951631 1.514651 0.653838 0.084568 -2.379141 0.180007 -1.855437 -1.060237 -1.408972 17.976885 9.196942 -1.692897 -14.207150 6.271248 -0.751245 8.922715 -75.970347 -14.396567 22.136692 -20.645240 -12.736891 2.248164 15.583175 6.488116 0.807741 -0.074490 -10.277763 14.574712 72.905697 19.881642 30.298862 10.959614 18.629263 4.647799 7.510115 4.664385 3.151161 4.027043 3.317731 13.590732 -6.872852 8.157998 -5.105732 -0.137294 -7.535991 -8.878200 0.000000 0.000000 0.000000 3.559651 10.006573 7.132227 9.200953 17.111480 14.666949 -5.187932 -25.834256 -15.367748 0.000000 0.000000 -0.000001 
0.009564 0.803899 -0.384566 -1.174564 3.510602 -4.972009 1.478918 0.665395 0.103128 -2.366695 0.183303 -1.885855 -1.062932 -1.419777 17.993457 9.202216 -1.703403 -14.215952 6.270616 -0.746341 8.917054 -75.955012 -14.379132 22.183390 -20.581706 -12.758610 2.147224 15.680655 6.517589 0.719843 -0.090442 -10.250448 14.577492 72.873042 19.842792 30.316620 10.899085 18.584603 4.588210 7.759151 4.643673 3.114759 4.038000 3.314107 13.608284 -6.871536 8.133515 -5.106925 -0.160859 -7.511499 -8.860269 0.000000 0.000000 0.000001 3.557416 9.883149 7.145016 9.219557 17.256935 14.706454 -5.202982 -25.864451 -15.369007 0.000000 0.000000 -0.000001 
0.009328 0.803907 -0.384593 -1.164013 3.525968 -4.982701 1.458300 0.670692 0.118914 -2.376076 0.184211 -1.928751 -1.098946 -1.404194 17.932818 9.273319 -1.709500 -14.086439 6.268042 -0.741156 8.926362 -75.918214 -14.363711 22.181251 -20.530271 -12.743876 2.132383 15.636617 6.505838 0.709424 -0.100342 -10.227000 14.590843 72.872103 19.781677 30.383579 10.801406 18.589991 4.535065 7.656272 4.665556 3.074482 4.038788 3.303234 13.613605 -6.859611 8.110558 -5.102397 -0.119352 -7.489234 -8.878696 0.000000 0.000001 -0.000001 3.563516 9.876928 7.164809 9.210311 17.227562 14.680900 -5.216790 -25.840322 -15.358153 0.000000 0.000000 0.000001 
0.009076 0.803919 -0.384618 -1.152163 3.543660 -4.995227 1.429039 0.682020 0.132916 -2.360285 0.187284 -1.972016 -1.073578 -1.445124 18.004737 9.176280 -1.736161 -14.151543 6.222648 -0.763800 8.946383 -75.864284 -14.355497 22.210486 -20.464049 -12.749279 2.083230 15.598864 6.499317 0.663782 -0.128570 -10.197148 14.574571 72.845107 19.721645 30.325878 10.853243 18.539713 4.562316 7.525550 4.648507 3.091610 4.038988 3.281108 13.617479 -6.854178 8.135562 -5.099229 -0.126378 -7.508720 -8.872604 0.000000 0.000001 0.000000 3.566111 9.845631 7.186121 9.209177 17.236558 14.666770 -5.235534 -25.837129 -15.345340 0.000000 0.000000 -0.000001 
0.008816 0.803925 -0.384648 -1.145171 3.558881 -5.001154 1.413419 0.691668 0.146976 -2.363892 0.189685 -2.017395 -1.136418 -1.428201 17.958950 9.273963 -1.745773 -14.057063 6.209384 -0.764997 8.949548 -75.832574 -14.348803 22.251023 -20.420055 -12.757069 2.045154 15.563844 6.497413 0.627212 -0.151275 -10.182208 14.581735 72.885801 19.661669 30.637215 10.660612 18.559152 4.394940 7.401834 4.647890 2.948966 4.041359 3.276014 13.611839 -6.831362 8.142357 -5.090683 -0.197600 -7.526996 -8.842072 0.000000 0.000001 0.000001 3.572147 9.800989 7.200046 9.192106 17.220304 14.643167 -5.253245 -25.779883 -15.335413 0.000000 0.000000 -0.000001 
0.008552 0.803938 -0.384668 -1.134393 3.578567 -5.006013 1.406372 0.692144 0.152114 -2.399167 0.188501 -2.051629 -1.072844 -1.471872 18.001511 9.161744 -1.765707 -14.101827 6.220874 -0.763033 8.957972 -75.807126 -14.353297 22.274032 -20.400536 -12.778883 2.001785 15.627107 6.497392 0.585780 -0.155586 -10.155343 14.585035 72.871879 19.615000 30.629856 10.652569 18.533077 4.403317 7.412060 4.628077 2.960320 4.046650 3.257588 13.603993 -6.825978 8.124924 -5.076344 -0.189374 -7.500155 -8.841940 0.000000 0.000001 0.000000 3.577986 9.767713 7.216250 9.187132 17.248417 14.623267 -5.274485 -25.786815 -15.318677 0.000000 0.000000 0.000000 
0.008291 0.803942 -0.384688 -1.118808 3.594346 -5.013018 1.392236 0.694411 0.158182 -2.424956 0.188057 -2.081970 -1.099078 -1.465562 17.993794 9.203422 -1.769460 -14.075663 6.230260 -0.772095 8.952944 -75.804599 -14.334839 22.338071 -20.329651 -12.816374 1.956787 15.592469 6.507514 0.541526 -0.167664 -10.117523 14.589158 72.865685 19.566708 30.611578 10.643492 18.517092 4.400179 7.450294 4.626318 2.961652 4.045978 3.248385 13.601225 -6.819452 8.141273 -5.068770 -0.212704 -7.526931 -8.828223 0.000000 0.000000 0.000001 3.584041 9.781140 7.236156 9.172980 17.197835 14.589186 -5.301137 -25.759064 -15.310762 0.000000 0.000000 0.000002 
0.008013 0.803939 -0.384708 -1.108393 3.615002 -5.017331 1.383893 0.689929 0.171413 -2.466156 0.185107 -2.120980 -1.075750 -1.474523 18.001769 9.191396 -1.770409 -14.087961 6.262236 -0.757210 8.959117 -75.810383 -14.356513 22.401468 -20.299147 -12.829159 1.922252 15.602450 6.522151 0.510757 -0.157127 -10.094872 14.592360 72.833797 19.522964 30.586838 10.664596 18.534131 4.404165 7.426796 4.628592 2.959708 4.051081 3.230991 13.595317 -6.815007 8.146608 -5.057746 -0.167615 -7.523517 -8.851986 0.000000 0.000000 -0.000001 3.594811 9.777227 7.248623 9.169166 17.193411 14.573203 -5.325068 -25.760146 -15.300360 0.000000 0.000000 0.000001 
